<svg width="189" height="60" viewBox="0 0 189 60"  xmlns="http://www.w3.org/2000/svg" >
<g clip-path="url(#clip0_1_2)">
<path d="M45.3334 30H42.0267C41.444 29.9988 40.8769 30.1884 40.4122 30.54C39.9475 30.8915 39.6107 31.3856 39.4534 31.9467L36.32 43.0934C36.2998 43.1626 36.2577 43.2234 36.2 43.2667C36.1423 43.31 36.0721 43.3334 36 43.3334C35.9279 43.3334 35.8577 43.31 35.8 43.2667C35.7423 43.2234 35.7002 43.1626 35.68 43.0934L28.32 16.9067C28.2998 16.8374 28.2577 16.7766 28.2 16.7334C28.1423 16.6901 28.0721 16.6667 28 16.6667C27.9279 16.6667 27.8577 16.6901 27.8 16.7334C27.7423 16.7766 27.7002 16.8374 27.68 16.9067L24.5467 28.0534C24.39 28.6122 24.0552 29.1047 23.5932 29.456C23.1311 29.8074 22.5671 29.9984 21.9867 30H18.6667" stroke="#1AC793" stroke-width="4" stroke-linecap="round" stroke-linejoin="round" fill="none"/>
</g>
<path d="M74.5114 28.9631L69.5256 29.2699C69.4403 28.8437 69.2571 28.4602 68.9759 28.1193C68.6946 27.7699 68.3239 27.4929 67.8636 27.2884C67.4119 27.0753 66.8707 26.9688 66.2401 26.9688C65.3963 26.9688 64.6847 27.1477 64.1051 27.5057C63.5256 27.8551 63.2358 28.3239 63.2358 28.9119C63.2358 29.3807 63.4233 29.777 63.7983 30.1009C64.1733 30.4247 64.8168 30.6847 65.7287 30.8807L69.2827 31.5966C71.1918 31.9886 72.6151 32.6193 73.5526 33.4886C74.4901 34.358 74.9588 35.5 74.9588 36.9148C74.9588 38.2017 74.5795 39.331 73.821 40.3026C73.071 41.2741 72.0398 42.0327 70.7273 42.5781C69.4233 43.1151 67.919 43.3835 66.2145 43.3835C63.6151 43.3835 61.544 42.8423 60.0014 41.7599C58.4673 40.669 57.5682 39.1861 57.304 37.3111L62.6605 37.0298C62.8224 37.8224 63.2145 38.4276 63.8366 38.8452C64.4588 39.2543 65.2557 39.4588 66.2273 39.4588C67.1818 39.4588 67.9489 39.2756 68.5284 38.9091C69.1165 38.5341 69.4148 38.0526 69.4233 37.4645C69.4148 36.9702 69.206 36.5653 68.7969 36.25C68.3878 35.9261 67.7571 35.679 66.9048 35.5085L63.5043 34.831C61.5866 34.4474 60.1591 33.7827 59.2216 32.8366C58.2926 31.8906 57.8281 30.6847 57.8281 29.2188C57.8281 27.9574 58.169 26.8707 58.8509 25.9588C59.5412 25.0469 60.5085 24.3438 61.7528 23.8494C63.0057 23.3551 64.4716 23.108 66.1506 23.108C68.6307 23.108 70.5824 23.6321 72.0057 24.6804C73.4375 25.7287 74.2727 27.1562 74.5114 28.9631ZM88.8327 23.3636V27.4545H77.0075V23.3636H88.8327ZM79.6921 18.6591H85.1381V36.9659C85.1381 37.4687 85.2148 37.8608 85.3683 38.142C85.5217 38.4148 85.7347 38.6065 86.0075 38.7173C86.2887 38.8281 86.6126 38.8835 86.979 38.8835C87.2347 38.8835 87.4904 38.8622 87.7461 38.8196C88.0018 38.7685 88.1978 38.7301 88.3342 38.7045L89.1907 42.7571C88.918 42.8423 88.5344 42.9403 88.0401 43.0511C87.5458 43.1705 86.945 43.2429 86.2376 43.2685C84.9251 43.3196 83.7745 43.1449 82.7859 42.7443C81.8058 42.3437 81.043 41.7216 80.4975 40.8778C79.9521 40.0341 79.6836 38.9687 79.6921 37.6818V18.6591ZM97.9798 43.3707C96.7269 43.3707 95.6104 43.1534 94.6303 42.7188C93.6502 42.2756 92.8746 41.6236 92.3036 40.7628C91.7411 39.8935 91.4599 38.8111 91.4599 37.5156C91.4599 36.4247 91.6602 35.5085 92.0607 34.767C92.4613 34.0256 93.0067 33.429 93.6971 32.9773C94.3874 32.5256 95.1715 32.1847 96.0494 31.9545C96.9357 31.7244 97.8647 31.5625 98.8363 31.4688C99.9783 31.3494 100.899 31.2386 101.598 31.1364C102.297 31.0256 102.804 30.8636 103.119 30.6506C103.434 30.4375 103.592 30.1222 103.592 29.7045V29.6278C103.592 28.8182 103.336 28.1918 102.825 27.7486C102.322 27.3054 101.606 27.0838 100.677 27.0838C99.6971 27.0838 98.9173 27.3011 98.3377 27.7358C97.7582 28.1619 97.3746 28.6989 97.1871 29.3466L92.1502 28.9375C92.4059 27.7443 92.9087 26.7131 93.6587 25.8438C94.4087 24.9659 95.3761 24.2926 96.5607 23.8239C97.7539 23.3466 99.1346 23.108 100.703 23.108C101.794 23.108 102.838 23.2358 103.835 23.4915C104.841 23.7472 105.731 24.1435 106.507 24.6804C107.291 25.2173 107.909 25.9077 108.36 26.7514C108.812 27.5866 109.038 28.5881 109.038 29.7557V43H103.873V40.277H103.72C103.404 40.8906 102.983 41.4318 102.454 41.9006C101.926 42.3608 101.291 42.723 100.549 42.9872C99.8079 43.2429 98.9513 43.3707 97.9798 43.3707ZM99.5394 39.6122C100.341 39.6122 101.048 39.4545 101.662 39.1392C102.275 38.8153 102.757 38.3807 103.106 37.8352C103.456 37.2898 103.63 36.6719 103.63 35.9815V33.8977C103.46 34.0085 103.225 34.1108 102.927 34.2045C102.637 34.2898 102.309 34.3707 101.943 34.4474C101.576 34.5156 101.21 34.5795 100.843 34.6392C100.477 34.6903 100.145 34.7372 99.8462 34.7798C99.207 34.8736 98.6488 35.0227 98.1715 35.2273C97.6942 35.4318 97.3235 35.7088 97.0593 36.0582C96.7951 36.3991 96.663 36.8253 96.663 37.3366C96.663 38.0781 96.9315 38.6449 97.4684 39.0369C98.0138 39.4205 98.7042 39.6122 99.5394 39.6122ZM113.263 43V23.3636H118.543V26.7898H118.748C119.105 25.571 119.706 24.6506 120.55 24.0284C121.394 23.3977 122.365 23.0824 123.465 23.0824C123.738 23.0824 124.032 23.0994 124.347 23.1335C124.662 23.1676 124.939 23.2145 125.178 23.2741V28.1065C124.922 28.0298 124.569 27.9616 124.117 27.902C123.665 27.8423 123.252 27.8125 122.877 27.8125C122.076 27.8125 121.36 27.9872 120.729 28.3366C120.107 28.6776 119.613 29.1548 119.246 29.7685C118.888 30.3821 118.709 31.0895 118.709 31.8906V43H113.263ZM139.423 23.3636V27.4545H127.597V23.3636H139.423ZM130.282 18.6591H135.728V36.9659C135.728 37.4687 135.805 37.8608 135.958 38.142C136.112 38.4148 136.325 38.6065 136.597 38.7173C136.879 38.8281 137.202 38.8835 137.569 38.8835C137.825 38.8835 138.08 38.8622 138.336 38.8196C138.592 38.7685 138.788 38.7301 138.924 38.7045L139.781 42.7571C139.508 42.8423 139.124 42.9403 138.63 43.0511C138.136 43.1705 137.535 43.2429 136.827 43.2685C135.515 43.3196 134.364 43.1449 133.376 42.7443C132.396 42.3437 131.633 41.7216 131.087 40.8778C130.542 40.0341 130.273 38.9687 130.282 37.6818V18.6591ZM151.302 43V23.3636H156.748V43H151.302ZM154.038 20.8324C153.228 20.8324 152.534 20.5639 151.954 20.027C151.383 19.4815 151.098 18.8295 151.098 18.071C151.098 17.321 151.383 16.6776 151.954 16.1406C152.534 15.5952 153.228 15.3224 154.038 15.3224C154.848 15.3224 155.538 15.5952 156.109 16.1406C156.689 16.6776 156.978 17.321 156.978 18.071C156.978 18.8295 156.689 19.4815 156.109 20.027C155.538 20.5639 154.848 20.8324 154.038 20.8324ZM171.555 23.3636V27.4545H159.73V23.3636H171.555ZM162.415 18.6591H167.861V36.9659C167.861 37.4687 167.938 37.8608 168.091 38.142C168.244 38.4148 168.457 38.6065 168.73 38.7173C169.011 38.8281 169.335 38.8835 169.702 38.8835C169.957 38.8835 170.213 38.8622 170.469 38.8196C170.724 38.7685 170.92 38.7301 171.057 38.7045L171.913 42.7571C171.641 42.8423 171.257 42.9403 170.763 43.0511C170.268 43.1705 169.668 43.2429 168.96 43.2685C167.648 43.3196 166.497 43.1449 165.509 42.7443C164.528 42.3437 163.766 41.7216 163.22 40.8778C162.675 40.0341 162.406 38.9687 162.415 37.6818V18.6591Z" fill="#31383B"/>
<defs>
<clipPath id="clip0_1_2">
<rect width="32" height="32" fill="white" transform="translate(16 14)"/>
</clipPath>
</defs>
</svg>
